<svg style="background: linear-gradient(135deg, #0A0E1A 0%, #1C2333 100%); padding: 10%" width="512" height="512" viewBox="0 0 512 512" xmlns="http://www.w3.org/2000/svg">
  <!-- Gradient definitions for premium look -->
  <defs>
    <!-- Radial gradient for aura glow -->
    <radialGradient id="auraGradient" cx="50%" cy="30%">
      <stop offset="0%" style="stop-color:#A8C5D9;stop-opacity:0.8" />
      <stop offset="50%" style="stop-color:#7A9FB5;stop-opacity:0.4" />
      <stop offset="100%" style="stop-color:#5A7F95;stop-opacity:0" />
    </radialGradient>

    <!-- Linear gradient for person silhouette -->
    <linearGradient id="personGradient" x1="0%" y1="0%" x2="0%" y2="100%">
      <stop offset="0%" style="stop-color:#A8C5D9;stop-opacity:1" />
      <stop offset="100%" style="stop-color:#5A7F95;stop-opacity:1" />
    </linearGradient>

    <!-- Gradient for outer ring -->
    <linearGradient id="ringGradient" x1="0%" y1="0%" x2="0%" y2="100%">
      <stop offset="0%" style="stop-color:#C5D9E8;stop-opacity:0.6" />
      <stop offset="100%" style="stop-color:#7A9FB5;stop-opacity:0.3" />
    </linearGradient>
  </defs>

  <!-- Background subtle glow -->
  <circle cx="256" cy="256" r="200" fill="url(#auraGradient)" opacity="0.3"/>

  <!-- Main meditation figure -->
  <g transform="translate(256, 280)">
    <!-- Outer aura ring - partial arcs for zen aesthetic -->
    <path d="M -140,-50 A 140,140 0 0,1 140,-50"
          fill="none"
          stroke="url(#ringGradient)"
          stroke-width="12"
          stroke-linecap="round"
          opacity="0.5"/>

    <!-- Inner aura ring -->
    <path d="M -110,-50 A 110,110 0 0,1 110,-50"
          fill="none"
          stroke="url(#ringGradient)"
          stroke-width="8"
          stroke-linecap="round"
          opacity="0.6"/>

    <!-- Meditation person -->
    <g transform="translate(0, -50)">
      <!-- Head with subtle glow -->
      <ellipse cx="0" cy="-52" rx="30" ry="34" fill="url(#personGradient)"/>

      <!-- Neck -->
      <rect x="-12" y="-20" width="24" height="15" rx="4" fill="url(#personGradient)"/>

      <!-- Torso -->
      <ellipse cx="0" cy="0" rx="42" ry="50" fill="url(#personGradient)"/>

      <!-- Arms in meditation pose - flowing curves -->
      <path d="M -35,-5 Q -65,5 -75,30 Q -72,35 -65,32 Q -55,15 -32,8 Z"
            fill="url(#personGradient)"
            opacity="0.95"/>
      <path d="M 35,-5 Q 65,5 75,30 Q 72,35 65,32 Q 55,15 32,8 Z"
            fill="url(#personGradient)"
            opacity="0.95"/>

      <!-- Legs in lotus position -->
      <ellipse cx="-45" cy="48" rx="50" ry="22" fill="url(#personGradient)" opacity="0.9"/>
      <ellipse cx="45" cy="48" rx="50" ry="22" fill="url(#personGradient)" opacity="0.9"/>

      <!-- Center base - meditation cushion -->
      <ellipse cx="0" cy="52" rx="55" ry="14" fill="#8E9AAF" opacity="0.4"/>

      <!-- Highlight for dimension -->
      <ellipse cx="0" cy="-52" rx="8" ry="10" fill="#E8F2F7" opacity="0.3"/>
    </g>
  </g>
</svg>
