<svg width="512" height="512" viewBox="0 0 512 512" xmlns="http://www.w3.org/2000/svg">
  <!-- Background -->
  <rect width="512" height="512" rx="128" fill="#F2E9E4"/>

  <!-- Meditation person with aura -->
  <g transform="translate(256, 280)">
    <!-- Outer aura circle -->
    <circle cx="0" cy="-50" r="120" fill="none" stroke="#8E9AAF" stroke-width="6" opacity="0.5"/>

    <!-- Inner aura circle -->
    <circle cx="0" cy="-50" r="100" fill="none" stroke="#8E9AAF" stroke-width="5" opacity="0.4"/>

    <!-- Person in meditation -->
    <g transform="translate(0, -50)">
      <!-- Head -->
      <ellipse cx="0" cy="-45" rx="24" ry="28" fill="#6B8FA3"/>

      <!-- Torso -->
      <ellipse cx="0" cy="-8" rx="30" ry="38" fill="#6B8FA3"/>

      <!-- Arms in meditation pose -->
      <!-- Left arm -->
      <path d="M -30,-8 Q -50,0 -58,17 L -50,25 Q -42,8 -25,4 Z" fill="#6B8FA3"/>
      <!-- Right arm -->
      <path d="M 30,-8 Q 50,0 58,17 L 50,25 Q 42,8 25,4 Z" fill="#6B8FA3"/>

      <!-- Legs in lotus position -->
      <!-- Left leg -->
      <ellipse cx="-35" cy="30" rx="38" ry="17" fill="#6B8FA3"/>
      <!-- Right leg -->
      <ellipse cx="35" cy="30" rx="38" ry="17" fill="#6B8FA3"/>

      <!-- Center connection (meditation cushion) -->
      <ellipse cx="0" cy="35" rx="42" ry="10" fill="#8E9AAF" opacity="0.6"/>
    </g>
  </g>

  <!-- App name -->
  <text x="256" y="430" font-family="serif" font-size="44" font-weight="300" fill="#2C3E50" text-anchor="middle">Halterra</text>
</svg>
