<svg width="512" height="512" viewBox="0 0 512 512" xmlns="http://www.w3.org/2000/svg">
  <defs>
    <!-- Gradient pour la personne -->
    <linearGradient id="personGrad" x1="0%" y1="0%" x2="0%" y2="100%">
      <stop offset="0%" style="stop-color:#A8C5D9;stop-opacity:1" />
      <stop offset="50%" style="stop-color:#7A9FB5;stop-opacity:1" />
      <stop offset="100%" style="stop-color:#5A7F95;stop-opacity:1" />
    </linearGradient>

    <!-- Gradient pour les anneaux -->
    <linearGradient id="ringGrad" x1="0%" y1="0%" x2="0%" y2="100%">
      <stop offset="0%" style="stop-color:#B8D5E8;stop-opacity:0.8" />
      <stop offset="100%" style="stop-color:#7A9FB5;stop-opacity:0.3" />
    </linearGradient>
  </defs>

  <!-- Groupe centré -->
  <g transform="translate(256, 256)">

    <!-- Anneau extérieur COMPLET -->
    <circle cx="0" cy="0" r="120"
            fill="none"
            stroke="url(#ringGrad)"
            stroke-width="16"
            opacity="0.6"/>

    <!-- Anneau intérieur COMPLET -->
    <circle cx="0" cy="0" r="85"
            fill="none"
            stroke="url(#ringGrad)"
            stroke-width="12"
            opacity="0.7"/>

    <!-- Tête -->
    <ellipse cx="0" cy="-5" rx="32" ry="36" fill="url(#personGrad)"/>

    <!-- Cou -->
    <rect x="-14" y="27" width="28" height="18" rx="6" fill="url(#personGrad)"/>

    <!-- Torse -->
    <ellipse cx="0" cy="65" rx="48" ry="55" fill="url(#personGrad)"/>

    <!-- Bras gauche -->
    <path d="M -40,50 Q -75,60 -85,90 L -75,95 Q -65,70 -38,62 Z"
          fill="url(#personGrad)" opacity="0.95"/>

    <!-- Bras droit -->
    <path d="M 40,50 Q 75,60 85,90 L 75,95 Q 65,70 38,62 Z"
          fill="url(#personGrad)" opacity="0.95"/>

    <!-- Jambe gauche (lotus) -->
    <ellipse cx="-50" cy="115" rx="55" ry="24" fill="url(#personGrad)" opacity="0.9"/>

    <!-- Jambe droite (lotus) -->
    <ellipse cx="50" cy="115" rx="55" ry="24" fill="url(#personGrad)" opacity="0.9"/>

    <!-- Base centrale -->
    <ellipse cx="0" cy="120" rx="60" ry="16" fill="#8E9AAF" opacity="0.4"/>

  </g>

</svg>
